<svg xmlns="http://www.w3.org/2000/svg" xmlns:xlink="http://www.w3.org/1999/xlink" width="116.5" height="116.5" viewBox="0 0 116.5 116.5">
  <defs>
    <filter id="Icon_material-video-library" x="0" y="0" width="116.5" height="116.5" filterUnits="userSpaceOnUse">
      <feOffset dy="3" input="SourceAlpha"/>
      <feGaussianBlur stdDeviation="4" result="blur"/>
      <feFlood flood-opacity="0.361"/>
      <feComposite operator="in" in2="blur"/>
      <feComposite in="SourceGraphic"/>
    </filter>
  </defs>
  <g transform="matrix(1, 0, 0, 1, 0, 0)" filter="url(#Icon_material-video-library)">
    <path id="Icon_material-video-library-2" data-name="Icon material-video-library" d="M12.25,21.5H3V86.25a9.277,9.277,0,0,0,9.25,9.25H77V86.25H12.25ZM86.25,3H30.75a9.277,9.277,0,0,0-9.25,9.25v55.5A9.277,9.277,0,0,0,30.75,77h55.5a9.277,9.277,0,0,0,9.25-9.25V12.25A9.277,9.277,0,0,0,86.25,3Zm-37,57.813V19.188L77,40Z" transform="translate(9 6)" fill="#fff" opacity="0.66"/>
  </g>
</svg>
