<svg id="Icon_ionic-ios-journal" data-name="Icon ionic-ios-journal" xmlns="http://www.w3.org/2000/svg" width="15.33" height="17.889" viewBox="0 0 15.33 17.889">
  <path id="Trazado_94" data-name="Trazado 94" d="M5.622,2.25A1.123,1.123,0,0,0,4.5,3.372V19.018a1.123,1.123,0,0,0,1.122,1.122h13.57a.641.641,0,0,0,.639-.639h0a.641.641,0,0,0-.639-.639H6.436a.656.656,0,0,1-.655-.563.644.644,0,0,1,.635-.719h8.3V2.25Z" transform="translate(-4.5 -2.25)" fill="#fff"/>
  <path id="Trazado_95" data-name="Trazado 95" d="M28.43,17.58a.641.641,0,0,0,.639-.639V3.372A1.123,1.123,0,0,0,27.947,2.25H25.875V17.58Z" transform="translate(-13.739 -2.25)" fill="#fff"/>
</svg>
