<svg xmlns="http://www.w3.org/2000/svg" width="23" height="18.4" viewBox="0 0 23 18.4">
  <path id="Icon_awesome-photo-video" data-name="Icon awesome-photo-video" d="M21.85,0H5.75A1.15,1.15,0,0,0,4.6,1.15V4.6h5.75V2.3h6.9V13.8h4.6A1.15,1.15,0,0,0,23,12.65V1.15A1.15,1.15,0,0,0,21.85,0ZM8.338,3.7a.323.323,0,0,1-.323.323H6.936A.323.323,0,0,1,6.613,3.7V2.623A.323.323,0,0,1,6.936,2.3H8.014a.323.323,0,0,1,.323.323Zm12.65,7.475a.323.323,0,0,1-.323.323H19.586a.323.323,0,0,1-.323-.323V10.1a.323.323,0,0,1,.323-.323h1.078a.323.323,0,0,1,.323.323Zm0-3.738a.323.323,0,0,1-.323.323H19.586a.323.323,0,0,1-.323-.323V6.361a.323.323,0,0,1,.323-.323h1.078a.323.323,0,0,1,.323.323Zm0-3.738a.323.323,0,0,1-.323.323H19.586a.323.323,0,0,1-.323-.323V2.623a.323.323,0,0,1,.323-.323h1.078a.323.323,0,0,1,.323.323ZM14.95,5.75H1.15A1.15,1.15,0,0,0,0,6.9V17.25A1.15,1.15,0,0,0,1.15,18.4h13.8a1.15,1.15,0,0,0,1.15-1.15V6.9A1.15,1.15,0,0,0,14.95,5.75ZM3.45,8.05A1.15,1.15,0,1,1,2.3,9.2,1.15,1.15,0,0,1,3.45,8.05ZM13.8,16.1H2.3V14.95l2.3-2.3L5.75,13.8l4.6-4.6,3.45,3.45Z" fill="#fff"/>
</svg>
