<svg xmlns="http://www.w3.org/2000/svg" width="19.32" height="19.326" viewBox="0 0 19.32 19.326">
  <path id="Icon_ionic-ios-settings" data-name="Icon ionic-ios-settings" d="M22.226,14.16a2.486,2.486,0,0,1,1.595-2.319,9.855,9.855,0,0,0-1.192-2.873,2.52,2.52,0,0,1-1.011.216,2.481,2.481,0,0,1-2.269-3.492A9.825,9.825,0,0,0,16.48,4.5a2.484,2.484,0,0,1-4.639,0A9.855,9.855,0,0,0,8.968,5.692,2.481,2.481,0,0,1,6.7,9.184a2.438,2.438,0,0,1-1.011-.216A10.073,10.073,0,0,0,4.5,11.846a2.485,2.485,0,0,1,.005,4.639A9.855,9.855,0,0,0,5.7,19.358a2.482,2.482,0,0,1,3.275,3.275,9.912,9.912,0,0,0,2.873,1.192,2.48,2.48,0,0,1,4.629,0,9.855,9.855,0,0,0,2.873-1.192,2.484,2.484,0,0,1,3.275-3.275,9.912,9.912,0,0,0,1.192-2.873A2.5,2.5,0,0,1,22.226,14.16Zm-8.02,4.02a4.025,4.025,0,1,1,4.025-4.025A4.024,4.024,0,0,1,14.206,18.18Z" transform="translate(-4.5 -4.5)" fill="#fff"/>
</svg>
